# Blender v2.79 (sub 0) OBJ File: 'bridge.blend'
# www.blender.org
o Cube_Cube.003
v -1.000000 -1.000000 1.000000
v 1.000000 -1.000000 1.000000
v -1.000000 1.000000 1.000000
v 1.000000 1.000000 1.000000
v -1.000000 -1.000000 -1.000000
v 1.000000 -1.000000 -1.000000
v -1.000000 1.000000 -1.000000
v 1.000000 1.000000 -1.000000
v -0.554105 1.000000 0.610800
v -0.554105 -1.000000 0.610800
v 0.134330 1.000000 0.325000
v 0.134330 -1.000000 0.325000
v -0.158958 1.000000 -0.497929
v -0.158958 -1.000000 -0.497929
v -0.554105 1.000000 -0.610800
v -0.554105 -1.000000 -0.610800
v 0.290385 1.000000 0.112871
v 0.290385 -1.000000 0.112871
v -0.158959 1.000000 0.497929
v -0.158959 -1.000000 0.497929
v 0.134330 1.000000 -0.325000
v 0.134330 -1.000000 -0.325000
v -1.000000 1.000000 -0.649699
v -1.000000 -1.000000 -0.649699
v 0.290385 1.000000 -0.112871
v 0.290385 -1.000000 -0.112871
v -1.000000 1.000000 0.649699
v -1.000000 -1.000000 0.649699
vn 0.0000 0.0000 1.0000
vn -0.0000 1.0000 0.0000
vn 0.0000 0.0000 -1.0000
vn -0.0000 -1.0000 0.0000
vn -1.0000 0.0000 0.0000
vn 1.0000 0.0000 0.0000
vn -0.8055 0.0000 0.5926
vn -0.2747 0.0000 0.9615
vn -0.8055 0.0000 -0.5926
vn -0.2747 0.0000 -0.9615
vn -0.0869 0.0000 -0.9962
vn -0.0869 0.0000 0.9962
vn -0.5079 0.0000 -0.8614
vn -0.5079 0.0000 0.8614
s off
f 2//1 3//1 1//1
f 4//2 8//2 17//2
f 8//3 5//3 7//3
f 6//4 2//4 26//4
f 27//5 1//5 3//5
f 4//6 6//6 8//6
f 23//5 5//5 24//5
f 25//7 22//7 26//7
f 13//8 16//8 14//8
f 11//9 18//9 12//9
f 9//10 20//10 10//10
f 17//5 26//5 18//5
f 10//11 27//11 9//11
f 15//12 24//12 16//12
f 19//13 12//13 20//13
f 21//14 14//14 22//14
f 2//1 4//1 3//1
f 27//2 3//2 9//2
f 8//2 7//2 13//2
f 7//2 23//2 15//2
f 9//2 3//2 19//2
f 19//2 3//2 4//2
f 7//2 15//2 13//2
f 8//2 13//2 21//2
f 11//2 19//2 4//2
f 17//2 11//2 4//2
f 8//2 21//2 25//2
f 25//2 17//2 8//2
f 8//3 6//3 5//3
f 24//4 5//4 16//4
f 2//4 1//4 20//4
f 1//4 28//4 10//4
f 16//4 5//4 14//4
f 14//4 5//4 6//4
f 1//4 10//4 20//4
f 2//4 20//4 12//4
f 22//4 14//4 6//4
f 26//4 22//4 6//4
f 2//4 12//4 18//4
f 18//4 26//4 2//4
f 27//5 28//5 1//5
f 4//6 2//6 6//6
f 23//5 7//5 5//5
f 25//7 21//7 22//7
f 13//8 15//8 16//8
f 11//9 17//9 18//9
f 9//10 19//10 20//10
f 17//5 25//5 26//5
f 10//11 28//11 27//11
f 15//12 23//12 24//12
f 19//13 11//13 12//13
f 21//14 13//14 14//14
