# Blender v2.79 (sub 0) OBJ File: ''
# www.blender.org
o Plane
v -1.000000 0.000000 -1.000000
v -1.000000 -1.000000 -1.000000
v 1.000000 0.000000 -1.000000
v 1.000000 -1.000000 -1.000000
v -1.000000 0.000000 -1.000000
v -1.000000 -0.939693 -0.315960
v 1.000000 0.000000 -1.000000
v 1.000000 -0.939693 -0.315960
v -1.000000 0.000000 -1.000000
v -1.000000 -0.766044 0.285575
v 1.000000 0.000000 -1.000000
v 1.000000 -0.766044 0.285575
v -1.000000 0.000000 -1.000000
v -1.000000 -0.500000 0.732051
v 1.000000 0.000000 -1.000000
v 1.000000 -0.500000 0.732051
v -1.000000 0.000000 -1.000000
v -1.000000 -0.173648 0.969616
v 1.000000 0.000000 -1.000000
v 1.000000 -0.173648 0.969616
v -1.000000 0.000000 -1.000000
v -1.000000 0.173648 0.969615
v 1.000000 0.000000 -1.000000
v 1.000000 0.173648 0.969615
v -1.000000 0.000000 -1.000000
v -1.000000 0.500000 0.732051
v 1.000000 0.000000 -1.000000
v 1.000000 0.500000 0.732051
v -1.000000 0.000000 -1.000000
v -1.000000 0.766044 0.285575
v 1.000000 0.000000 -1.000000
v 1.000000 0.766044 0.285575
v -1.000000 0.000000 -1.000000
v -1.000000 0.939692 -0.315960
v 1.000000 0.000000 -1.000000
v 1.000000 0.939692 -0.315960
v -1.000000 0.000000 -1.000000
v -1.000000 1.000000 -1.000000
v 1.000000 0.000000 -1.000000
v 1.000000 1.000000 -1.000000
vn 0.0000 0.0000 -1.0000
vn 0.0000 -0.9608 0.2774
vn -1.0000 0.0000 0.0000
vn 0.0000 -0.9961 0.0878
vn 0.0000 0.0000 1.0000
vn 1.0000 0.0000 0.0000
vn 0.0000 -0.8591 0.5119
vn 0.0000 -0.5885 0.8085
vn 0.0000 0.5885 0.8085
vn 0.0000 0.9608 0.2774
vn 0.0000 0.8591 0.5119
vn 0.0000 0.9961 0.0878
s off
f 1//1 3//1 4//1 2//1
f 6//2 8//2 12//2 10//2
f 1//3 2//3 6//3 5//3
f 2//4 4//4 8//4 6//4
f 3//5 1//5 5//5 7//5
f 4//6 3//6 7//6 8//6
f 11//5 9//5 13//5 15//5
f 7//5 5//5 9//5 11//5
f 8//6 7//6 11//6 12//6
f 5//3 6//3 10//3 9//3
f 16//6 15//6 19//6 20//6
f 12//6 11//6 15//6 16//6
f 9//3 10//3 14//3 13//3
f 10//7 12//7 16//7 14//7
f 18//5 20//5 24//5 22//5
f 13//3 14//3 18//3 17//3
f 14//8 16//8 20//8 18//8
f 15//5 13//5 17//5 19//5
f 24//6 23//6 27//6 28//6
f 19//5 17//5 21//5 23//5
f 20//6 19//6 23//6 24//6
f 17//3 18//3 22//3 21//3
f 25//3 26//3 30//3 29//3
f 21//3 22//3 26//3 25//3
f 22//9 24//9 28//9 26//9
f 23//5 21//5 25//5 27//5
f 30//10 32//10 36//10 34//10
f 26//11 28//11 32//11 30//11
f 27//5 25//5 29//5 31//5
f 28//6 27//6 31//6 32//6
f 36//6 35//6 39//6 40//6
f 31//5 29//5 33//5 35//5
f 32//6 31//6 35//6 36//6
f 29//3 30//3 34//3 33//3
f 37//1 38//1 40//1 39//1
f 33//3 34//3 38//3 37//3
f 34//12 36//12 40//12 38//12
f 35//5 33//5 37//5 39//5
