# Blender v2.79 (sub 0) OBJ File: ''
# www.blender.org
o Cube
v 1.000000 1.000000 -1.000000
v 1.000000 -1.000000 -1.000000
v -1.000000 -1.000000 0.000000
v -1.000000 1.000000 0.000000
v 1.000000 0.999999 1.000000
v 0.999999 -1.000001 1.000000
vn -0.4472 0.0000 -0.8944
vn -0.4472 0.0000 0.8944
vn 1.0000 0.0000 -0.0000
vn -0.0000 -1.0000 -0.0000
vn 0.0000 1.0000 0.0000
s off
f 2//1 4//1 1//1
f 4//2 6//2 5//2
f 5//3 2//3 1//3
f 2//4 6//4 3//4
f 5//5 1//5 4//5
f 2//1 3//1 4//1
f 4//2 3//2 6//2
f 5//3 6//3 2//3
